<mxfile host="app.diagrams.net" agent="Mozilla/5.0 (Windows NT 10.0; Win64; x64; rv:142.0) Gecko/20100101 Firefox/142.0" version="28.1.0">
  <diagram name="Page-1" id="HDfE3Z-ZGKkPCUfUmB_r">
    <mxGraphModel dx="914" dy="478" grid="0" gridSize="10" guides="1" tooltips="1" connect="1" arrows="1" fold="1" page="1" pageScale="1" pageWidth="850" pageHeight="1100" background="none" math="0" shadow="0">
      <root>
        <mxCell id="0" />
        <mxCell id="1" parent="0" />
        <mxCell id="6yAuP4eui6Pe8Xpx1V7B-7" style="edgeStyle=orthogonalEdgeStyle;rounded=0;orthogonalLoop=1;jettySize=auto;html=1;" parent="1" source="6yAuP4eui6Pe8Xpx1V7B-1" edge="1">
          <mxGeometry relative="1" as="geometry">
            <mxPoint x="282" y="115" as="targetPoint" />
          </mxGeometry>
        </mxCell>
        <mxCell id="6yAuP4eui6Pe8Xpx1V7B-1" value="User" style="shape=umlActor;verticalLabelPosition=bottom;verticalAlign=top;html=1;outlineConnect=0;" parent="1" vertex="1">
          <mxGeometry x="87" y="85" width="30" height="60" as="geometry" />
        </mxCell>
        <mxCell id="6yAuP4eui6Pe8Xpx1V7B-5" value="" style="rounded=0;whiteSpace=wrap;html=1;" parent="1" vertex="1">
          <mxGeometry x="289" y="85" width="120" height="60" as="geometry" />
        </mxCell>
        <mxCell id="6yAuP4eui6Pe8Xpx1V7B-6" value="&lt;strong data-end=&quot;837&quot; data-start=&quot;815&quot;&gt;Python CLI Chatbot&lt;/strong&gt;" style="text;strokeColor=none;align=center;fillColor=none;html=1;verticalAlign=middle;whiteSpace=wrap;rounded=0;" parent="1" vertex="1">
          <mxGeometry x="301" y="100" width="92" height="30" as="geometry" />
        </mxCell>
        <mxCell id="6yAuP4eui6Pe8Xpx1V7B-8" value="User types a question" style="text;strokeColor=none;align=center;fillColor=none;html=1;verticalAlign=middle;whiteSpace=wrap;rounded=0;" parent="1" vertex="1">
          <mxGeometry x="129" y="80" width="132" height="30" as="geometry" />
        </mxCell>
        <mxCell id="6yAuP4eui6Pe8Xpx1V7B-29" style="edgeStyle=orthogonalEdgeStyle;rounded=0;orthogonalLoop=1;jettySize=auto;html=1;entryX=1;entryY=1;entryDx=0;entryDy=0;" parent="1" source="6yAuP4eui6Pe8Xpx1V7B-10" target="6yAuP4eui6Pe8Xpx1V7B-5" edge="1">
          <mxGeometry relative="1" as="geometry" />
        </mxCell>
        <mxCell id="6yAuP4eui6Pe8Xpx1V7B-10" value="Azure Resource Group" style="swimlane;" parent="1" vertex="1">
          <mxGeometry x="539" y="80" width="200" height="200" as="geometry" />
        </mxCell>
        <mxCell id="6yAuP4eui6Pe8Xpx1V7B-12" value="&lt;div&gt;&lt;br&gt;&lt;/div&gt;&lt;div&gt;&lt;br&gt;&lt;/div&gt;" style="whiteSpace=wrap;html=1;" parent="1" vertex="1">
          <mxGeometry x="564" y="120" width="152" height="109" as="geometry" />
        </mxCell>
        <mxCell id="6yAuP4eui6Pe8Xpx1V7B-13" value="GPT-4 Deployment" style="rounded=0;whiteSpace=wrap;html=1;" parent="1" vertex="1">
          <mxGeometry x="580" y="175.5" width="120" height="39" as="geometry" />
        </mxCell>
        <mxCell id="6yAuP4eui6Pe8Xpx1V7B-15" value="API request" style="text;strokeColor=none;align=center;fillColor=none;html=1;verticalAlign=middle;whiteSpace=wrap;rounded=0;" parent="1" vertex="1">
          <mxGeometry x="417" y="83" width="83" height="30" as="geometry" />
        </mxCell>
        <mxCell id="6yAuP4eui6Pe8Xpx1V7B-21" value="&lt;strong data-end=&quot;1068&quot; data-start=&quot;1044&quot;&gt;Azure OpenAI Service&lt;/strong&gt;" style="text;strokeColor=none;align=center;fillColor=none;html=1;verticalAlign=middle;whiteSpace=wrap;rounded=0;" parent="1" vertex="1">
          <mxGeometry x="585" y="130" width="108" height="30" as="geometry" />
        </mxCell>
        <mxCell id="6yAuP4eui6Pe8Xpx1V7B-23" style="edgeStyle=orthogonalEdgeStyle;rounded=0;orthogonalLoop=1;jettySize=auto;html=1;entryX=0.046;entryY=0.165;entryDx=0;entryDy=0;entryPerimeter=0;exitX=1;exitY=0.5;exitDx=0;exitDy=0;" parent="1" source="6yAuP4eui6Pe8Xpx1V7B-5" target="6yAuP4eui6Pe8Xpx1V7B-12" edge="1">
          <mxGeometry relative="1" as="geometry" />
        </mxCell>
        <mxCell id="6yAuP4eui6Pe8Xpx1V7B-26" value="AI response" style="text;strokeColor=none;align=center;fillColor=none;html=1;verticalAlign=middle;whiteSpace=wrap;rounded=0;" parent="1" vertex="1">
          <mxGeometry x="434" y="178" width="89" height="30" as="geometry" />
        </mxCell>
        <mxCell id="6yAuP4eui6Pe8Xpx1V7B-31" value="" style="endArrow=none;html=1;rounded=0;" parent="1" edge="1">
          <mxGeometry width="50" height="50" relative="1" as="geometry">
            <mxPoint x="341" y="202" as="sourcePoint" />
            <mxPoint x="341" y="146" as="targetPoint" />
          </mxGeometry>
        </mxCell>
        <mxCell id="6yAuP4eui6Pe8Xpx1V7B-32" value="" style="endArrow=none;html=1;rounded=0;" parent="1" edge="1">
          <mxGeometry width="50" height="50" relative="1" as="geometry">
            <mxPoint x="115" y="202" as="sourcePoint" />
            <mxPoint x="341" y="202" as="targetPoint" />
          </mxGeometry>
        </mxCell>
        <mxCell id="6yAuP4eui6Pe8Xpx1V7B-33" value="" style="endArrow=classic;html=1;rounded=0;" parent="1" edge="1">
          <mxGeometry width="50" height="50" relative="1" as="geometry">
            <mxPoint x="117" y="201" as="sourcePoint" />
            <mxPoint x="117" y="160" as="targetPoint" />
          </mxGeometry>
        </mxCell>
        <mxCell id="6yAuP4eui6Pe8Xpx1V7B-34" value="Bot reply displayed on CLI" style="text;strokeColor=none;align=center;fillColor=none;html=1;verticalAlign=middle;whiteSpace=wrap;rounded=0;" parent="1" vertex="1">
          <mxGeometry x="173" y="210" width="130" height="30" as="geometry" />
        </mxCell>
      </root>
    </mxGraphModel>
  </diagram>
</mxfile>
